%TF.GenerationSoftware,KiCad,Pcbnew,8.0.8*%
%TF.CreationDate,2025-02-20T18:25:54-06:00*%
%TF.ProjectId,LED_CIRCUIT,4c45445f-4349-4524-9355-49542e6b6963,rev?*%
%TF.SameCoordinates,Original*%
%TF.FileFunction,Legend,Top*%
%TF.FilePolarity,Positive*%
%FSLAX46Y46*%
G04 Gerber Fmt 4.6, Leading zero omitted, Abs format (unit mm)*
G04 Created by KiCad (PCBNEW 8.0.8) date 2025-02-20 18:25:54*
%MOMM*%
%LPD*%
G01*
G04 APERTURE LIST*
%ADD10C,0.150000*%
%ADD11C,0.120000*%
G04 APERTURE END LIST*
D10*
X132761905Y-59494819D02*
X132761905Y-58494819D01*
X132761905Y-58494819D02*
X133000000Y-58494819D01*
X133000000Y-58494819D02*
X133142857Y-58542438D01*
X133142857Y-58542438D02*
X133238095Y-58637676D01*
X133238095Y-58637676D02*
X133285714Y-58732914D01*
X133285714Y-58732914D02*
X133333333Y-58923390D01*
X133333333Y-58923390D02*
X133333333Y-59066247D01*
X133333333Y-59066247D02*
X133285714Y-59256723D01*
X133285714Y-59256723D02*
X133238095Y-59351961D01*
X133238095Y-59351961D02*
X133142857Y-59447200D01*
X133142857Y-59447200D02*
X133000000Y-59494819D01*
X133000000Y-59494819D02*
X132761905Y-59494819D01*
X134285714Y-59494819D02*
X133714286Y-59494819D01*
X134000000Y-59494819D02*
X134000000Y-58494819D01*
X134000000Y-58494819D02*
X133904762Y-58637676D01*
X133904762Y-58637676D02*
X133809524Y-58732914D01*
X133809524Y-58732914D02*
X133714286Y-58780533D01*
X123309523Y-58954819D02*
X123309523Y-59669104D01*
X123309523Y-59669104D02*
X123261904Y-59811961D01*
X123261904Y-59811961D02*
X123166666Y-59907200D01*
X123166666Y-59907200D02*
X123023809Y-59954819D01*
X123023809Y-59954819D02*
X122928571Y-59954819D01*
X123738095Y-59907200D02*
X123880952Y-59954819D01*
X123880952Y-59954819D02*
X124119047Y-59954819D01*
X124119047Y-59954819D02*
X124214285Y-59907200D01*
X124214285Y-59907200D02*
X124261904Y-59859580D01*
X124261904Y-59859580D02*
X124309523Y-59764342D01*
X124309523Y-59764342D02*
X124309523Y-59669104D01*
X124309523Y-59669104D02*
X124261904Y-59573866D01*
X124261904Y-59573866D02*
X124214285Y-59526247D01*
X124214285Y-59526247D02*
X124119047Y-59478628D01*
X124119047Y-59478628D02*
X123928571Y-59431009D01*
X123928571Y-59431009D02*
X123833333Y-59383390D01*
X123833333Y-59383390D02*
X123785714Y-59335771D01*
X123785714Y-59335771D02*
X123738095Y-59240533D01*
X123738095Y-59240533D02*
X123738095Y-59145295D01*
X123738095Y-59145295D02*
X123785714Y-59050057D01*
X123785714Y-59050057D02*
X123833333Y-59002438D01*
X123833333Y-59002438D02*
X123928571Y-58954819D01*
X123928571Y-58954819D02*
X124166666Y-58954819D01*
X124166666Y-58954819D02*
X124309523Y-59002438D01*
X124595238Y-58954819D02*
X125166666Y-58954819D01*
X124880952Y-59954819D02*
X124880952Y-58954819D01*
X126023809Y-59954819D02*
X125452381Y-59954819D01*
X125738095Y-59954819D02*
X125738095Y-58954819D01*
X125738095Y-58954819D02*
X125642857Y-59097676D01*
X125642857Y-59097676D02*
X125547619Y-59192914D01*
X125547619Y-59192914D02*
X125452381Y-59240533D01*
X133333333Y-71454819D02*
X133000000Y-70978628D01*
X132761905Y-71454819D02*
X132761905Y-70454819D01*
X132761905Y-70454819D02*
X133142857Y-70454819D01*
X133142857Y-70454819D02*
X133238095Y-70502438D01*
X133238095Y-70502438D02*
X133285714Y-70550057D01*
X133285714Y-70550057D02*
X133333333Y-70645295D01*
X133333333Y-70645295D02*
X133333333Y-70788152D01*
X133333333Y-70788152D02*
X133285714Y-70883390D01*
X133285714Y-70883390D02*
X133238095Y-70931009D01*
X133238095Y-70931009D02*
X133142857Y-70978628D01*
X133142857Y-70978628D02*
X132761905Y-70978628D01*
X134285714Y-71454819D02*
X133714286Y-71454819D01*
X134000000Y-71454819D02*
X134000000Y-70454819D01*
X134000000Y-70454819D02*
X133904762Y-70597676D01*
X133904762Y-70597676D02*
X133809524Y-70692914D01*
X133809524Y-70692914D02*
X133714286Y-70740533D01*
D11*
%TO.C,D1*%
X131940000Y-60764000D02*
X131940000Y-60920000D01*
X131940000Y-63080000D02*
X131940000Y-63236000D01*
X131940000Y-60764484D02*
G75*
G02*
X135171397Y-60919939I1560000J-1235516D01*
G01*
X132459039Y-60920000D02*
G75*
G02*
X134540910Y-60919951I1040961J-1080000D01*
G01*
X134540910Y-63080049D02*
G75*
G02*
X132459039Y-63080000I-1040910J1080049D01*
G01*
X135171397Y-63080061D02*
G75*
G02*
X131940000Y-63235516I-1671397J1080061D01*
G01*
%TO.C,JST1*%
X121440000Y-60590000D02*
X121440000Y-68410000D01*
X121440000Y-62190000D02*
X122360000Y-62190000D01*
X121440000Y-68410000D02*
X127560000Y-68410000D01*
X122200000Y-64550000D02*
X122200000Y-66150000D01*
X122200000Y-66150000D02*
X123200000Y-66150000D01*
X122360000Y-60590000D02*
X121440000Y-60590000D01*
X122360000Y-62190000D02*
X122360000Y-60590000D01*
X122640000Y-62190000D02*
X122360000Y-62190000D01*
X122640000Y-62190000D02*
X122640000Y-60975000D01*
X122700000Y-66150000D02*
X122700000Y-68410000D01*
X123200000Y-64550000D02*
X122200000Y-64550000D01*
X123200000Y-66150000D02*
X123200000Y-64550000D01*
X123200000Y-66150000D02*
X123200000Y-68410000D01*
X124000000Y-64050000D02*
X125000000Y-64050000D01*
X124000000Y-68410000D02*
X124000000Y-64050000D01*
X125000000Y-64050000D02*
X125000000Y-68410000D01*
X125800000Y-64550000D02*
X126800000Y-64550000D01*
X125800000Y-66150000D02*
X125800000Y-64550000D01*
X126640000Y-60590000D02*
X126640000Y-62190000D01*
X126640000Y-62190000D02*
X126360000Y-62190000D01*
X126800000Y-64550000D02*
X126800000Y-66150000D01*
X126800000Y-66150000D02*
X125800000Y-66150000D01*
X127560000Y-60590000D02*
X126640000Y-60590000D01*
X127560000Y-62190000D02*
X126640000Y-62190000D01*
X127560000Y-68410000D02*
X127560000Y-60590000D01*
%TO.C,R1*%
X133825000Y-67500000D02*
X133895000Y-67500000D01*
X133825000Y-67500000D02*
G75*
G02*
X131085000Y-67500000I-1370000J0D01*
G01*
X131085000Y-67500000D02*
G75*
G02*
X133825000Y-67500000I1370000J0D01*
G01*
%TD*%
M02*
