%TF.GenerationSoftware,KiCad,Pcbnew,8.0.8*%
%TF.CreationDate,2025-02-20T18:26:07-06:00*%
%TF.ProjectId,LED_CIRCUIT,4c45445f-4349-4524-9355-49542e6b6963,rev?*%
%TF.SameCoordinates,Original*%
%TF.FileFunction,Drillmap*%
%TF.FilePolarity,Positive*%
%FSLAX45Y45*%
G04 Gerber Fmt 4.5, Leading zero omitted, Abs format (unit mm)*
G04 Created by KiCad (PCBNEW 8.0.8) date 2025-02-20 18:26:07*
%MOMM*%
%LPD*%
G01*
G04 APERTURE LIST*
%ADD10C,0.050000*%
%ADD11C,0.200000*%
G04 APERTURE END LIST*
D10*
X11450000Y-5750000D02*
X11450000Y-7500000D01*
X14500000Y-7500000D02*
X11450000Y-7500000D01*
X14500000Y-5750000D02*
X14500000Y-7500000D01*
X14500000Y-5750000D02*
X11450000Y-5750000D01*
D11*
X11708277Y-7813984D02*
X11708277Y-7613984D01*
X11708277Y-7613984D02*
X11755896Y-7613984D01*
X11755896Y-7613984D02*
X11784467Y-7623508D01*
X11784467Y-7623508D02*
X11803515Y-7642555D01*
X11803515Y-7642555D02*
X11813039Y-7661603D01*
X11813039Y-7661603D02*
X11822562Y-7699698D01*
X11822562Y-7699698D02*
X11822562Y-7728269D01*
X11822562Y-7728269D02*
X11813039Y-7766365D01*
X11813039Y-7766365D02*
X11803515Y-7785412D01*
X11803515Y-7785412D02*
X11784467Y-7804460D01*
X11784467Y-7804460D02*
X11755896Y-7813984D01*
X11755896Y-7813984D02*
X11708277Y-7813984D01*
X11908277Y-7813984D02*
X11908277Y-7680650D01*
X11908277Y-7718746D02*
X11917801Y-7699698D01*
X11917801Y-7699698D02*
X11927324Y-7690174D01*
X11927324Y-7690174D02*
X11946372Y-7680650D01*
X11946372Y-7680650D02*
X11965420Y-7680650D01*
X12032086Y-7813984D02*
X12032086Y-7680650D01*
X12032086Y-7613984D02*
X12022562Y-7623508D01*
X12022562Y-7623508D02*
X12032086Y-7633031D01*
X12032086Y-7633031D02*
X12041610Y-7623508D01*
X12041610Y-7623508D02*
X12032086Y-7613984D01*
X12032086Y-7613984D02*
X12032086Y-7633031D01*
X12155896Y-7813984D02*
X12136848Y-7804460D01*
X12136848Y-7804460D02*
X12127324Y-7785412D01*
X12127324Y-7785412D02*
X12127324Y-7613984D01*
X12260658Y-7813984D02*
X12241610Y-7804460D01*
X12241610Y-7804460D02*
X12232086Y-7785412D01*
X12232086Y-7785412D02*
X12232086Y-7613984D01*
X12489229Y-7813984D02*
X12489229Y-7613984D01*
X12489229Y-7613984D02*
X12555896Y-7756841D01*
X12555896Y-7756841D02*
X12622562Y-7613984D01*
X12622562Y-7613984D02*
X12622562Y-7813984D01*
X12803515Y-7813984D02*
X12803515Y-7709222D01*
X12803515Y-7709222D02*
X12793991Y-7690174D01*
X12793991Y-7690174D02*
X12774943Y-7680650D01*
X12774943Y-7680650D02*
X12736848Y-7680650D01*
X12736848Y-7680650D02*
X12717801Y-7690174D01*
X12803515Y-7804460D02*
X12784467Y-7813984D01*
X12784467Y-7813984D02*
X12736848Y-7813984D01*
X12736848Y-7813984D02*
X12717801Y-7804460D01*
X12717801Y-7804460D02*
X12708277Y-7785412D01*
X12708277Y-7785412D02*
X12708277Y-7766365D01*
X12708277Y-7766365D02*
X12717801Y-7747317D01*
X12717801Y-7747317D02*
X12736848Y-7737793D01*
X12736848Y-7737793D02*
X12784467Y-7737793D01*
X12784467Y-7737793D02*
X12803515Y-7728269D01*
X12898753Y-7680650D02*
X12898753Y-7880650D01*
X12898753Y-7690174D02*
X12917801Y-7680650D01*
X12917801Y-7680650D02*
X12955896Y-7680650D01*
X12955896Y-7680650D02*
X12974943Y-7690174D01*
X12974943Y-7690174D02*
X12984467Y-7699698D01*
X12984467Y-7699698D02*
X12993991Y-7718746D01*
X12993991Y-7718746D02*
X12993991Y-7775888D01*
X12993991Y-7775888D02*
X12984467Y-7794936D01*
X12984467Y-7794936D02*
X12974943Y-7804460D01*
X12974943Y-7804460D02*
X12955896Y-7813984D01*
X12955896Y-7813984D02*
X12917801Y-7813984D01*
X12917801Y-7813984D02*
X12898753Y-7804460D01*
X13079705Y-7794936D02*
X13089229Y-7804460D01*
X13089229Y-7804460D02*
X13079705Y-7813984D01*
X13079705Y-7813984D02*
X13070182Y-7804460D01*
X13070182Y-7804460D02*
X13079705Y-7794936D01*
X13079705Y-7794936D02*
X13079705Y-7813984D01*
X13079705Y-7690174D02*
X13089229Y-7699698D01*
X13089229Y-7699698D02*
X13079705Y-7709222D01*
X13079705Y-7709222D02*
X13070182Y-7699698D01*
X13070182Y-7699698D02*
X13079705Y-7690174D01*
X13079705Y-7690174D02*
X13079705Y-7709222D01*
M02*
